Coordinates
version=1
nRows=26
nColumns=24
inDegrees=yes

Units are S.I. units (second, meters, Newtons, ...)
Angles are in degrees.

endheader
time	pelvis_tilt	pelvis_list	pelvis_rotation	pelvis_tx	pelvis_ty	pelvis_tz	hip_flexion_r	hip_adduction_r	hip_rotation_r	knee_angle_r	ankle_angle_r	subtalar_angle_r	mtp_angle_r	hip_flexion_l	hip_adduction_l	hip_rotation_l	knee_angle_l	ankle_angle_l	subtalar_angle_l	mtp_angle_l	lumbar_extension	lumbar_bending	lumbar_rotation
      5.36000000	     -1.08891282	      4.58959703	     -0.09083460	      0.90231633	      1.00631481	     -0.30431591	     22.99387499	     -2.96517803	      4.91923973	     -6.11944804	     12.93423125	     -3.01768872	      0.00000000	    -16.95382578	      7.39664772	      4.89071912	     -8.79864518	     13.89767151	     -7.24357404	      0.00000000	    -12.80570412	     -3.85470655	    -10.44433464
      5.36500000	     -1.02629632	      4.48417875	     -0.06700611	      0.90965103	      1.00589640	     -0.30361633	     23.00677870	     -2.77480843	      4.73768396	     -6.97382212	     12.86658088	     -2.73143989	      0.00000000	    -16.94871256	      7.21567199	      4.52008087	     -9.74003985	     13.93481951	     -6.56961045	      0.00000000	    -12.81802246	     -3.70968053	    -10.41064016
      5.37000000	     -0.97358562	      4.35875942	     -0.04189612	      0.91701142	      1.00552456	     -0.30290887	     23.02745018	     -2.56581734	      4.56689234	     -7.85734470	     12.64593823	     -2.48406002	      0.00000000	    -16.91221977	      7.01030305	      4.11011485	    -10.71284037	     13.91365033	     -5.90525105	      0.00000000	    -12.81857853	     -3.54307308	    -10.36257348
      5.37500000	     -0.93888192	      4.19428268	     -0.01905631	      0.92439010	      1.00517211	     -0.30219103	     23.06273088	     -2.32068824	      4.45543261	     -8.75472184	     12.30141212	     -2.26607324	      0.00000000	    -16.82921672	      6.76152091	      3.66213594	    -11.73311456	     13.89053288	     -5.23548952	      0.00000000	    -12.79863910	     -3.33148501	    -10.28476168
      5.38000000	     -0.92005912	      3.99810522	     -0.00331516	      0.93177612	      1.00490484	     -0.30146234	     23.11095471	     -2.04244435	      4.35299851	     -9.63812990	     11.78278882	     -2.12466007	      0.00000000	    -16.70804759	      6.47798671	      3.17399462	    -12.77722450	     13.77426673	     -4.59806234	      0.00000000	    -12.76202277	     -3.08472144	    -10.19181405
      5.38500000	     -0.91550006	      3.76877777	      0.00456574	      0.93913952	      1.00471541	     -0.30070723	     23.17254620	     -1.72761983	      4.29475970	    -10.50353645	     11.15113728	     -2.07569892	      0.00000000	    -16.53605831	      6.15592097	      2.63342044	    -13.87256328	     13.60439806	     -3.96972877	      0.00000000	    -12.71679460	     -2.80240526	    -10.07153410
      5.39000000	     -0.92784261	      3.50502316	      0.00475248	      0.94650511	      1.00461162	     -0.29995335	     23.24487677	     -1.37574372	      4.28863828	    -11.33953439	     10.43973714	     -2.13897117	      0.00000000	    -16.31563963	      5.79504035	      2.04589806	    -15.00855705	     13.35357968	     -3.36843673	      0.00000000	    -12.65416549	     -2.47947290	     -9.93016587
      5.39500000	     -0.95127858	      3.21419010	     -0.00064409	      0.95386631	      1.00459513	     -0.29919843	     23.32274613	     -0.99260508	      4.34503176	    -12.15234259	      9.70827459	     -2.32397150	      0.00000000	    -16.04934821	      5.40116408	      1.41864140	    -16.18913608	     13.01252521	     -2.81329375	      0.00000000	    -12.58321469	     -2.12708480	     -9.76770853
      5.40000000	     -0.97467390	      2.93728628	     -0.01767250	      0.96117944	      1.00466997	     -0.29840020	     23.39460636	     -0.60913043	      4.52244892	    -12.94171934	      8.98347454	     -2.68958145	      0.00000000	    -15.73710749	      5.01099714	      0.73368540	    -17.43024881	     12.56553110	     -2.26905380	      0.00000000	    -12.52390360	     -1.80216321	     -9.58564489
      5.40500000	     -1.00569060	      2.59875807	     -0.03426971	      0.96860470	      1.00481371	     -0.29770669	     23.46631632	     -0.17436016	      4.63255076	    -13.73515236	      8.38503304	     -3.02288499	      0.00000000	    -15.40282827	      4.56061212	      0.06150428	    -18.68637083	     11.99321625	     -1.86440000	      0.00000000	    -12.43661058	     -1.38763415	     -9.39227172
      5.41000000	     -1.02799182	      2.30575337	     -0.06553158	      0.97595892	      1.00500810	     -0.29696020	     23.52860350	      0.23345371	      4.84907681	    -14.52836004	      7.88379894	     -3.50870180	      0.00000000	    -15.01635356	      4.13991446	     -0.69312320	    -20.02600906	     11.32252838	     -1.44450058	      0.00000000	    -12.37562086	     -1.03354213	     -9.19275057
      5.41500000	     -1.03869007	      2.02490691	     -0.09907468	      0.98334258	      1.00525834	     -0.29624810	     23.57145396	      0.62855414	      5.04397805	    -15.32606376	      7.54555043	     -3.99304756	      0.00000000	    -14.60541669	      3.72308227	     -1.45622655	    -21.40710931	     10.49799609	     -1.13036088	      0.00000000	    -12.32429895	     -0.69205429	     -8.98815839
      5.42000000	     -1.04168298	      1.76213972	     -0.13973282	      0.99074992	      1.00554000	     -0.29554951	     23.59853465	      1.00687520	      5.19937947	    -16.12549687	      7.37665850	     -4.45550543	      0.00000000	    -14.15865378	      3.30986886	     -2.25689703	    -22.84080196	      9.53234990	     -0.87649447	      0.00000000	    -12.27788777	     -0.36919686	     -8.77671164
      5.42500000	     -1.03117639	      1.51999577	     -0.18013059	      0.99817564	      1.00586072	     -0.29485170	     23.60077142	      1.36085431	      5.27898160	    -16.91940319	      7.37640140	     -4.85548809	      0.00000000	    -13.68363687	      2.89988962	     -3.07320519	    -24.31857311	      8.39973178	     -0.71768413	      0.00000000	    -12.24327347	     -0.07601783	     -8.56201328
      5.43000000	     -1.02241389	      1.30616236	     -0.22596338	      1.00554355	      1.00617707	     -0.29416553	     23.59409624	      1.68610641	      5.35709037	    -17.70116620	      7.51321884	     -5.20782751	      0.00000000	    -13.15063253	      2.49852143	     -3.91791502	    -25.86030609	      7.13181019	     -0.61841904	      0.00000000	    -12.21912182	      0.19451843	     -8.37380394
      5.43500000	     -1.00322392	      1.10016251	     -0.26326907	      1.01292538	      1.00653041	     -0.29345771	     23.55219575	      1.99487741	      5.34513042	    -18.44762799	      7.77322648	     -5.47406013	      0.00000000	    -12.58846351	      2.08006875	     -4.75883324	    -27.43610651	      5.68316436	     -0.61897517	      0.00000000	    -12.20416149	      0.44351346	     -8.18517151
      5.44000000	     -1.04264028	      0.93319454	     -0.33397820	      1.02025452	      1.00678356	     -0.29263716	     23.56026824	      2.28008268	      5.33033644	    -19.16743244	      8.12655351	     -5.70785744	      0.00000000	    -11.91547084	      1.67411575	     -5.66025247	    -29.06133429	      4.09578948	     -0.66783705	      0.00000000	    -12.11897229	      0.62760867	     -7.96380342
      5.44500000	     -0.99342827	      0.70060767	     -0.34106725	      1.02759463	      1.00722202	     -0.29194239	     23.41894546	      2.58916930	      5.18306481	    -19.79773767	      8.52757098	     -5.84573590	      0.00000000	    -11.30692022	      1.17615546	     -6.46488607	    -30.69553557	      2.32644009	     -0.87304418	      0.00000000	    -12.14433283	      0.91075358	     -7.79961674
      5.45000000	     -0.96196635	      0.47090834	     -0.36933021	      1.03489066	      1.00762481	     -0.29115618	     23.26715658	      2.90432003	      5.03612055	    -20.37141119	      8.97374375	     -5.96272562	      0.00000000	    -10.64519098	      0.65426970	     -7.29752365	    -32.35541331	      0.43612622	     -1.14405215	      0.00000000	    -12.14998391	      1.17295379	     -7.59905941
      5.45500000	     -0.97462751	      0.24660908	     -0.42340000	      1.04211022	      1.00799801	     -0.29030173	     23.13332201	      3.22071625	      4.91857171	    -20.88955241	      9.42954106	     -6.01285248	      0.00000000	     -9.90870751	      0.12314131	     -8.10825126	    -34.02378231	     -1.59580952	     -1.50420726	      0.00000000	    -12.11551827	      1.42079390	     -7.39082242
      5.46000000	     -1.10406777	      0.10710824	     -0.49233016	      1.04919262	      1.00818370	     -0.28937508	     23.11595316	      3.45887147	      4.83057619	    -21.38745453	      9.97522784	     -6.00822724	      0.00000000	     -9.00958401	     -0.33496844	     -8.88887963	    -35.71118812	     -3.73989337	     -2.01867411	      0.00000000	    -11.94995637	      1.54866389	     -7.17675158
      5.46500000	     -1.08394889	     -0.21417712	     -0.47293338	      1.05634557	      1.00861590	     -0.28850893	     22.85585920	      3.84185095	      4.58428763	    -21.73374889	     10.42485706	     -6.06111888	      0.00000000	     -8.25238931	     -1.02649511	     -9.58101971	    -37.42211957	     -5.82866039	     -2.49454707	      0.00000000	    -11.95916460	      1.89784170	     -6.98364057
      5.47000000	     -1.19044916	     -0.40054871	     -0.48727392	      1.06331870	      1.00891914	     -0.28763134	     22.73034740	      4.10016788	      4.45518803	    -22.07382755	     10.91645465	     -6.03621157	      0.00000000	     -7.33685090	     -1.55517565	    -10.17937014	    -39.09953459	     -8.09830068	     -3.22260463	      0.00000000	    -11.83368275	      2.08131822	     -6.82090696
      5.47500000	     -1.32493266	     -0.65412095	     -0.47240155	      1.07020072	      1.00915812	     -0.28677566	     22.61440710	      4.40578279	      4.21694284	    -22.36463423	     11.40933662	     -5.94866761	      0.00000000	     -6.35544835	     -2.17286852	    -10.71394102	    -40.82503416	    -10.24879593	     -3.97091415	      0.00000000	    -11.68929253	      2.34216889	     -6.62682614
      5.48000000	     -1.37347729	     -0.93944520	     -0.42761263	      1.07715153	      1.00956891	     -0.28591595	     22.33784862	      4.74159380	      4.02813383	    -22.53508284	     11.85802769	     -5.94616602	      0.00000000	     -5.46901901	     -2.82794873	    -11.17167379	    -42.50551723	    -12.40433138	     -4.81517632	      0.00000000	    -11.62545347	      2.63185781	     -6.47982617
      5.48500000	     -1.55053108	     -1.17647835	     -0.38767580	      1.08392337	      1.00979065	     -0.28514636	     22.21682204	      5.00983142	      3.78585818	    -22.72779258	     12.38094343	     -5.76947392	      0.00000000	     -4.40845933	     -3.41074146	    -11.53830697	    -44.20355369	    -14.48626428	     -5.77784876	      0.00000000	    -11.42969700	      2.87340761	     -6.31618566
